# xmcd
#
# Track frame offsets:
#	150
#	14009
#	27225
#	41236
#	45390
#	58362
#	68065
#	78153
#	90923
#	100402
#	107472
#	119107
#	138731
#	151118
#	169391
#	177602
#
# Disc length: 2507 seconds
#
# Revision: 0
# Processed by: cddbd v1.5.1PL0 Copyright (c) Steve Scherf et al.
# Submitted via: dBpowerAMP V4.0
#
DISCID=dd09c910
DTITLE=Fence - The New Diplomacy
DYEAR=2005
DGENRE=Punk
TTITLE0=Last Day
TTITLE1=The New Diplomacy
TTITLE2=The Streets Of Oslo
TTITLE3=Blood and Oil Part I
TTITLE4=Dye The Flag
TTITLE5=Red Army
TTITLE6=We're Not Punk
TTITLE7=Jimmy
TTITLE8=Scorched Earth
TTITLE9=Blood and Oil Part II
TTITLE10=Conform, Obey, Consume
TTITLE11=Raping Lady Liberty
TTITLE12=Leaving It To Me
TTITLE13=The Failings Of John Doe
TTITLE14=Cluster Bombs
TTITLE15=Blood and Oil Part III
EXTD=
EXTT0=
EXTT1=
EXTT2=
EXTT3=
EXTT4=
EXTT5=
EXTT6=
EXTT7=
EXTT8=
EXTT9=
EXTT10=
EXTT11=
EXTT12=
EXTT13=
EXTT14=
EXTT15=
PLAYORDER=
